# xmcd
# 
# Track frame offsets:
#     150
#     13954
#     25262
#     37816
#     50455
#     61961
#     75689
#     88078
#     99816
#     113491
#     126265
#     136415
#     147931
#     160721
#     174216
#     185762
#     198858
#     212651
#     224077
#     237103
# 
# Disc length: 3316
# 
# Revision: 2
# Processed by: cddbd v1.5.2PL0 Copyright (c) Steve Scherf et al.
# Submitted via: fre:ac v1.0.31
# 
DISCID=0f0cf214
DTITLE=Various Artist - Country and Western No.3
DYEAR=2017
DGENRE=Country
TTITLE0=Pee Wee King - Tennessee Waltz
TTITLE1=Tennessee Ermie Ford - River Of No Return
TTITLE2=Hank Williams - Cold Cold Heart
TTITLE3=Al Dexter - Pistol Packin' Mama
TTITLE4=Don Gibson - Oh Lonesome Me
TTITLE5=Tex Ritter - There's A New Moon Over My Shoulder
TTITLE6=Dean Martin - My Rifle, My Pony And Me
TTITLE7=Eddy Arnold - Bouquet Of Roses
TTITLE8=Hank Williams - Beyond The Sunset
TTITLE9=Hank Snow - I'm Movin' On
TTITLE10=Johnny Horton - Honky Tonk Man
TTITLE11=Zek Manners and His Band - Sioux City Sue
TTITLE12=Jimmy Davis - You Are My Sunshie
TTITLE13=Risalie Allen - I Want To Be A Cowboy's Sweeheart
TTITLE14=Marty Robbins - A White Sport Coat (And A Pink Carnation)
TTITLE15=Jimmy Wakely - Oklahoma Hills
TTITLE16=Johnny Cash - Don't Take Your Guns To Town
TTITLE17=Kitty Wells - It Wasn't God Who Made Honkey Tonk Angels
TTITLE18=Roy Acuff - Pins And Needles
TTITLE19=Hank Williams - Kaw-Liga
EXTD=
EXTT0=
EXTT1=
EXTT2=
EXTT3=
EXTT4=
EXTT5=
EXTT6=
EXTT7=
EXTT8=
EXTT9=
EXTT10=
EXTT11=
EXTT12=
EXTT13=
EXTT14=
EXTT15=
EXTT16=
EXTT17=
EXTT18=
EXTT19=
PLAYORDER=
